<mxfile host="app.diagrams.net" modified="2023-08-08T04:51:53.534Z" agent="Mozilla/5.0 (Windows NT 10.0; Win64; x64) AppleWebKit/537.36 (KHTML, like Gecko) Chrome/114.0.0.0 Safari/537.36" version="21.6.6" etag="FLgS5gQvtVo2N3uXIkBt" type="github">
  <diagram name="第 1 页" id="SeFyCkr2zWW1G-tfU8nQ">
    <mxGraphModel>
      <root>
        <mxCell id="0" />
        <mxCell id="1" parent="0" />
      </root>
    </mxGraphModel>
  </diagram>
</mxfile>
